# xmcd CD database file
#
# Track frame offsets:
#	150
#	20978
#	44723
#	68078
#	88998
#	115693
#	142173
#	167000
#	191438
#	214645
#	240730
#
# Disc length: 3601 seconds
#
# Revision: 0
# Processed by: cddbd v1.5.1PL0 Copyright (c) Steve Scherf et al.
# Submitted via: CDex 1.51
#
DISCID=a40e0f0b
DTITLE=杉山清貴 - RHYTHM FROM THE OCEAN
DYEAR=1900
DGENRE=JPop
TTITLE0=Rhythm from the Ocean
TTITLE1=Endless Summer
TTITLE2=君がいてくれて
TTITLE3=永遠の夏に抱かれて
TTITLE4=Summer Again
TTITLE5=「YES」から始まるlove story
TTITLE6=COMING TO OASIS
TTITLE7=WITH；
TTITLE8=君のすべてを包みたい
TTITLE9=夜明け前（故　円谷皐氏に捧ぐ）
TTITLE10=さよならのオーシャン＜オーシャン’95＞
EXTD=
EXTT0=
EXTT1=
EXTT2=
EXTT3=
EXTT4=
EXTT5=
EXTT6=
EXTT7=
EXTT8=
EXTT9=
EXTT10=
PLAYORDER=
